<?xml version="1.0" encoding="UTF-8"?>
<svg id="_2" data-name="2" xmlns="http://www.w3.org/2000/svg" version="1.1" viewBox="0 0 512 512">
  <path d="M85.72,281.72v187.47c0,6.27,5.08,11.35,11.35,11.35h86.23c6.29,0,11.38-5.11,11.35-11.4l-.49-96.18c-.03-6.29,5.06-11.4,11.35-11.4h102.82c6.22,0,11.28,5.01,11.34,11.23l.97,96.52c.06,6.22,5.12,11.23,11.34,11.23h82.95c6.27,0,11.35-5.08,11.35-11.35v-187.46l37.71,37.7c4.43,4.43,11.61,4.43,16.04,0l23.94-23.94c4.43-4.43,4.43-11.61,0-16.04l-61.45-61.45-97.7-97.7-80.81-80.81c-4.43-4.43-11.61-4.43-16.04,0l-80.81,80.81-97.73,97.75-61.41,61.4c-4.43,4.43-4.43,11.61,0,16.05l23.94,23.94c4.43,4.43,11.61,4.43,16.04,0l37.71-37.71Z"/>
</svg>