<?xml version="1.0" encoding="UTF-8"?>
<svg id="_2" data-name="2" xmlns="http://www.w3.org/2000/svg" version="1.1" viewBox="0 0 512 512">
  <path d="M499.45,210l-55.85-2.58c-5.1-.23-9.61-3.4-11.55-8.1l-11.51-27.69c-1.94-4.73-1-10.15,2.45-13.91l37.67-41.33c4.72-5.19,4.55-13.21-.42-18.18l-46.43-46.44c-4.99-4.97-13-5.16-18.2-.41l-41.31,37.67c-3.78,3.44-9.21,4.4-13.92,2.44l-27.69-11.49c-4.72-1.95-7.86-6.45-8.09-11.57l-2.59-55.83c-.33-7.03-6.12-12.56-13.14-12.56h-65.71c-7.02,0-12.83,5.53-13.16,12.56l-2.57,55.83c-.23,5.11-3.38,9.62-8.09,11.57l-27.7,11.49c-4.74,1.97-10.16,1.01-13.92-2.44l-41.33-37.67c-5.2-4.75-13.22-4.56-18.2.41l-46.42,46.44c-4.99,4.98-5.16,12.99-.42,18.18l37.67,41.33c3.45,3.77,4.37,9.19,2.42,13.91l-11.47,27.7c-1.96,4.71-6.44,7.87-11.56,8.1l-55.83,2.58C5.55,210.32,0,216.12,0,223.15v65.7c0,7.02,5.54,12.83,12.56,13.15l55.83,2.58c5.12.23,9.61,3.39,11.56,8.1l11.47,27.69c1.96,4.73,1.04,10.15-2.42,13.91l-37.67,41.31c-4.76,5.22-4.56,13.22.4,18.2l46.47,46.44c4.97,4.98,12.97,5.15,18.18.42l41.31-37.68c3.76-3.44,9.21-4.39,13.92-2.43l27.69,11.48c4.72,1.96,7.86,6.46,8.09,11.58l2.57,55.83c.32,7.02,6.14,12.56,13.16,12.56h65.71c7.02,0,12.81-5.54,13.14-12.56l2.59-55.83c.23-5.11,3.38-9.62,8.09-11.58l27.69-11.48c4.72-1.96,10.15-1.01,13.92,2.43l41.31,37.68c5.2,4.73,13.21,4.55,18.2-.42l46.43-46.44c4.97-4.98,5.14-12.98.42-18.2l-37.67-41.31c-3.45-3.77-4.41-9.19-2.45-13.91l11.51-27.69c1.94-4.71,6.44-7.87,11.55-8.1l55.85-2.58c7.02-.32,12.54-6.13,12.54-13.15v-65.7c0-7.03-5.52-12.83-12.54-13.15ZM256.01,339.62c-46.16,0-83.62-37.44-83.62-83.61s37.46-83.62,83.62-83.62,83.6,37.44,83.6,83.62-37.44,83.61-83.6,83.61Z"/>
</svg>