<?xml version="1.0" encoding="UTF-8"?>
<svg id="_2" data-name="2" xmlns="http://www.w3.org/2000/svg" version="1.1" viewBox="0 0 512 512">
  <path d="M312.59,261.19l15.91-17.2c28.5-25.38,84.92,1.66,131.45-40.58,42.55-38.61,49.66-82.48,40.14-119.48-.28-2.94-.98-5.41-3.55-7.25l-8.56-7.02c-1.48-1.39-3.48-2.06-5.48-1.88-2.02.2-3.84,1.23-5.03,2.88l-49.25,64.03c-1.38,1.89-3.59,2.97-5.92,2.89l-17.88,1.31c-1.53-.05-3.02-.59-4.22-1.56l-34.53-29.27c-1.41-1.14-2.33-2.77-2.56-4.56l-2.14-16.19c-.25-1.78.2-3.59,1.27-5.06l46.11-62.64c2.09-2.88,1.69-6.86-.91-9.28l-11.19-8.75c-2.19-2.03-4.67-1.75-8.06-1.09-31.84,6.28-86.22,37.12-100.02,79.75-12.16,37.52-7.92,63.97-7.92,63.97,0,21.14-6.95,41.52-15.5,50.06l-15.68,15.05-24.98-20.4-84.3-84.5-10.31-45.72L54.27,12.98l-20.64,20.66-20.64,20.64,45.72,75.22,45.72,10.31,83.56,83.78,20.34,24.84L24.5,424.92c-.47.42-.92.86-1.38,1.31-19.84,19.84-19.81,52.05-.64,71.22s51.86,19.67,71.7-.17c.92-.92,1.81-1.88,2.64-2.86l165.98-179.42,136.65,166.94c22.78,22.77,59.69,22.77,82.47,0,22.78-22.78,22.78-59.7,0-82.47l-169.33-138.28Z"/>
</svg>