<?xml version="1.0" ?><svg id="Outline" viewBox="0 0 512 512" xmlns="http://www.w3.org/2000/svg"><defs></defs><path class="cls-1" d="M387.46,244.66H266.34V121a11.34,11.34,0,1,0-22.68,0V244.66H117.54a11.34,11.34,0,0,0,0,22.68H243.66V391a11.34,11.34,0,1,0,22.68,0V267.34H387.46a11.34,11.34,0,1,0,0-22.68Z"/><path class="cls-1" d="M256,58.65c-108.38,0-196.56,88.18-196.56,196.56S147.62,451.77,256,451.77,452.56,363.6,452.56,255.21,364.38,58.65,256,58.65Zm0,370.45c-95.88,0-173.88-78-173.88-173.89S160.12,81.33,256,81.33s173.88,78,173.88,173.88S351.88,429.1,256,429.1Z"/></svg>