<?xml version="1.0" encoding="UTF-8"?>
<svg id="icon" xmlns="http://www.w3.org/2000/svg" version="1.1" viewBox="0 0 1000 1000">
  <path d="M895.74,166.74l-56.84-58.07c-3.33-3.4-8.79-3.46-12.2-.13l-23.54,23.06c-3.33,3.26-3.38,8.6-.12,11.93l56.96,58.18c6.42,6.53,10.02,15.32,10,24.48v27.62c0,7.44-4.27,14.22-10.98,17.43l-59.45,28.45c-5.85,2.8-9.57,8.7-9.57,15.19v105.11c.04,35.88,29.12,64.96,65,65h15v319.58c0,8.08-6.21,15.03-14.27,15.41-8.61.41-15.73-6.46-15.73-14.98v-200.28c.08-24.64-13.85-47.19-35.93-58.14l-44.07-20.29V120c-.05-44.16-35.84-79.95-80-80H220c-44.16.05-79.95,35.84-80,80v771.49c0,4.7-3.81,8.51-8.51,8.51h-42.98c-4.7,0-8.51,3.81-8.51,8.51v43c0,4.69,3.8,8.5,8.5,8.5h722.99c4.7,0,8.51-3.81,8.51-8.51v-42.98c0-4.7-3.81-8.51-8.51-8.51h-42.95c-4.72,0-8.54-3.82-8.54-8.54v-310.13l22,10.12c4.94,2.58,8.02,7.7,8,13.27v194.31c0,35.72,28.42,65.5,64.14,65.96,36.29.47,65.86-28.81,65.86-64.99V226.2c.05-22.24-8.66-43.6-24.26-59.46ZM669.04,142.86v274.74c0,12.38-10.03,22.41-22.41,22.41h-384.23c-12.59,0-22.79-10.21-22.79-22.79V143.33c0-12.88,10.44-23.33,23.33-23.33h383.25c12.62,0,22.86,10.23,22.86,22.86ZM853,440c-8.28,0-15-6.72-15-15v-87.07c0-4.37,2.56-8.33,6.55-10.12l25.45-11.41v123.6h-17Z"/>
</svg>